<?xml version="1.0" encoding="UTF-8" standalone="no"?>
<!DOCTYPE svg PUBLIC "-//W3C//DTD SVG 1.1//EN"
 "http://www.w3.org/Graphics/SVG/1.1/DTD/svg11.dtd">
<!-- Generated by graphviz version 2.40.1 (20161225.0304)
 -->
<!-- Title: gocallvis Pages: 1 -->
<svg width="825pt" height="716pt"
 viewBox="0.00 0.00 825.44 716.00" xmlns="http://www.w3.org/2000/svg" xmlns:xlink="http://www.w3.org/1999/xlink">
<g id="graph0" class="graph" transform="scale(1 1) rotate(0) translate(0 716)">
<title>gocallvis</title>
<polygon fill="#d3d3d3" stroke="transparent" points="0,0 0,-716 825.435,-716 825.435,0 0,0"/>
<g id="clust1" class="cluster">
<title>cluster_focus</title>
<polygon fill="#e6ecfa" stroke="#000000" stroke-width=".5" points="8,-8 8,-708 817.435,-708 817.435,-8 8,-8"/>
<text text-anchor="middle" x="412.7175" y="-687.8" font-family="Arial" font-size="18.00" fill="#000000">projects</text>
</g>
<g id="clust3" class="cluster">
<title>cluster_github.com/wcatron/query&#45;projects/internal/commands</title>
<g id="a_clust3"><a xlink:href="/?f=github.com/wcatron/query-projects/internal/commands" xlink:title="package: github.com/wcatron/query&#45;projects/internal/commands">
<polygon fill="#ffffe0" stroke="#000000" stroke-width=".8" points="16,-103 16,-670 210.749,-670 210.749,-103 16,-103"/>
<text text-anchor="middle" x="113.3745" y="-651.6" font-family="Tahoma bold" font-size="16.00" fill="#000000">commands</text>
</a>
</g>
</g>
<g id="clust2" class="cluster">
<title>cluster_github.com/wcatron/query&#45;projects/callvis</title>
<g id="a_clust2"><a xlink:href="/?f=github.com/wcatron/query-projects/callvis" xlink:title="package: github.com/wcatron/query&#45;projects/callvis">
<polygon fill="#ffffe0" stroke="#000000" stroke-width=".8" points="78.3745,-16 78.3745,-95 148.3745,-95 148.3745,-16 78.3745,-16"/>
<text text-anchor="middle" x="113.3745" y="-76.6" font-family="Tahoma bold" font-size="16.00" fill="#000000">main</text>
</a>
</g>
</g>
<!-- github.com/wcatron/query&#45;projects/internal/projects.findProjectsDir -->
<g id="node1" class="node">
<title>github.com/wcatron/query&#45;projects/internal/projects.findProjectsDir</title>
<g id="a_node1"><a xlink:title="github.com/wcatron/query&#45;projects/internal/projects.findProjectsDir | defined in projects.go:105&#10;at projects.go:113: calling [github.com/wcatron/query&#45;projects/internal/projects.findFileInParents]">
<path fill="#add8e6" stroke="#000000" stroke-width=".5" d="M603.3912,-330C603.3912,-330 516.776,-330 516.776,-330 510.776,-330 504.776,-324 504.776,-318 504.776,-318 504.776,-306 504.776,-306 504.776,-300 510.776,-294 516.776,-294 516.776,-294 603.3912,-294 603.3912,-294 609.3912,-294 615.3912,-300 615.3912,-306 615.3912,-306 615.3912,-318 615.3912,-318 615.3912,-324 609.3912,-330 603.3912,-330"/>
<text text-anchor="middle" x="560.0836" y="-307.8" font-family="Verdana" font-size="14.00" fill="#000000">findProjectsDir</text>
</a>
</g>
</g>
<!-- github.com/wcatron/query&#45;projects/internal/projects.findFileInParents -->
<g id="node2" class="node">
<title>github.com/wcatron/query&#45;projects/internal/projects.findFileInParents</title>
<g id="a_node2"><a xlink:title="github.com/wcatron/query&#45;projects/internal/projects.findFileInParents | defined in projects.go:85">
<path fill="#add8e6" stroke="#000000" stroke-width=".5" d="M797.5341,-330C797.5341,-330 700.1381,-330 700.1381,-330 694.1381,-330 688.1381,-324 688.1381,-318 688.1381,-318 688.1381,-306 688.1381,-306 688.1381,-300 694.1381,-294 700.1381,-294 700.1381,-294 797.5341,-294 797.5341,-294 803.5341,-294 809.5341,-300 809.5341,-306 809.5341,-306 809.5341,-318 809.5341,-318 809.5341,-324 803.5341,-330 797.5341,-330"/>
<text text-anchor="middle" x="748.8361" y="-307.8" font-family="Verdana" font-size="14.00" fill="#000000">findFileInParents</text>
</a>
</g>
</g>
<!-- github.com/wcatron/query&#45;projects/internal/projects.findProjectsDir&#45;&gt;github.com/wcatron/query&#45;projects/internal/projects.findFileInParents -->
<g id="edge1" class="edge">
<title>github.com/wcatron/query&#45;projects/internal/projects.findProjectsDir&#45;&gt;github.com/wcatron/query&#45;projects/internal/projects.findFileInParents</title>
<g id="a_edge1"><a xlink:title="at projects.go:113: calling [github.com/wcatron/query&#45;projects/internal/projects.findFileInParents]">
<path fill="none" stroke="#000000" d="M615.4402,-312C635.0716,-312 657.437,-312 678.1699,-312"/>
<polygon fill="#000000" stroke="#000000" points="678.1977,-315.5001 688.1976,-312 678.1976,-308.5001 678.1977,-315.5001"/>
</a>
</g>
</g>
<!-- github.com/wcatron/query&#45;projects/internal/projects.LoadProjects -->
<g id="node3" class="node">
<title>github.com/wcatron/query&#45;projects/internal/projects.LoadProjects</title>
<g id="a_node3"><a xlink:title="github.com/wcatron/query&#45;projects/internal/projects.LoadProjects | defined in projects.go:133&#10;at projects.go:134: calling [github.com/wcatron/query&#45;projects/internal/projects.findProjectsDir]">
<path fill="#add8e6" stroke="#000000" stroke-width="1.5" d="M390.705,-330C390.705,-330 316.974,-330 316.974,-330 310.974,-330 304.974,-324 304.974,-318 304.974,-318 304.974,-306 304.974,-306 304.974,-300 310.974,-294 316.974,-294 316.974,-294 390.705,-294 390.705,-294 396.705,-294 402.705,-300 402.705,-306 402.705,-306 402.705,-318 402.705,-318 402.705,-324 396.705,-330 390.705,-330"/>
<text text-anchor="middle" x="353.8395" y="-307.8" font-family="Verdana" font-size="14.00" fill="#000000">LoadProjects</text>
</a>
</g>
</g>
<!-- github.com/wcatron/query&#45;projects/internal/projects.LoadProjects&#45;&gt;github.com/wcatron/query&#45;projects/internal/projects.findProjectsDir -->
<g id="edge7" class="edge">
<title>github.com/wcatron/query&#45;projects/internal/projects.LoadProjects&#45;&gt;github.com/wcatron/query&#45;projects/internal/projects.findProjectsDir</title>
<g id="a_edge7"><a xlink:title="at projects.go:134: calling [github.com/wcatron/query&#45;projects/internal/projects.findProjectsDir]">
<path fill="none" stroke="#000000" d="M402.7165,-312C430.1014,-312 464.6211,-312 494.3473,-312"/>
<polygon fill="#000000" stroke="#000000" points="494.6424,-315.5001 504.6423,-312 494.6423,-308.5001 494.6424,-315.5001"/>
</a>
</g>
</g>
<!-- github.com/wcatron/query&#45;projects/internal/projects.FilterProjectsByTopics -->
<g id="node4" class="node">
<title>github.com/wcatron/query&#45;projects/internal/projects.FilterProjectsByTopics</title>
<g id="a_node4"><a xlink:title="github.com/wcatron/query&#45;projects/internal/projects.FilterProjectsByTopics | defined in projects.go:31&#10;at projects.go:43: calling [github.com/wcatron/query&#45;projects/internal/projects.contains]&#10;at projects.go:51: calling [github.com/wcatron/query&#45;projects/internal/projects.contains]&#10;at projects.go:59: calling [github.com/wcatron/query&#45;projects/internal/projects.contains]">
<path fill="#add8e6" stroke="#000000" stroke-width="1.5" d="M418.7064,-92C418.7064,-92 288.9726,-92 288.9726,-92 282.9726,-92 276.9726,-86 276.9726,-80 276.9726,-80 276.9726,-68 276.9726,-68 276.9726,-62 282.9726,-56 288.9726,-56 288.9726,-56 418.7064,-56 418.7064,-56 424.7064,-56 430.7064,-62 430.7064,-68 430.7064,-68 430.7064,-80 430.7064,-80 430.7064,-86 424.7064,-92 418.7064,-92"/>
<text text-anchor="middle" x="353.8395" y="-69.8" font-family="Verdana" font-size="14.00" fill="#000000">FilterProjectsByTopics</text>
</a>
</g>
</g>
<!-- github.com/wcatron/query&#45;projects/internal/projects.contains -->
<g id="node5" class="node">
<title>github.com/wcatron/query&#45;projects/internal/projects.contains</title>
<g id="a_node5"><a xlink:title="github.com/wcatron/query&#45;projects/internal/projects.contains | defined in projects.go:71">
<path fill="#add8e6" stroke="#000000" stroke-width=".5" d="M583.2394,-92C583.2394,-92 536.9278,-92 536.9278,-92 530.9278,-92 524.9278,-86 524.9278,-80 524.9278,-80 524.9278,-68 524.9278,-68 524.9278,-62 530.9278,-56 536.9278,-56 536.9278,-56 583.2394,-56 583.2394,-56 589.2394,-56 595.2394,-62 595.2394,-68 595.2394,-68 595.2394,-80 595.2394,-80 595.2394,-86 589.2394,-92 583.2394,-92"/>
<text text-anchor="middle" x="560.0836" y="-69.8" font-family="Verdana" font-size="14.00" fill="#000000">contains</text>
</a>
</g>
</g>
<!-- github.com/wcatron/query&#45;projects/internal/projects.FilterProjectsByTopics&#45;&gt;github.com/wcatron/query&#45;projects/internal/projects.contains -->
<g id="edge17" class="edge">
<title>github.com/wcatron/query&#45;projects/internal/projects.FilterProjectsByTopics&#45;&gt;github.com/wcatron/query&#45;projects/internal/projects.contains</title>
<g id="a_edge17"><a xlink:title="at projects.go:43: calling [github.com/wcatron/query&#45;projects/internal/projects.contains]&#10;at projects.go:51: calling [github.com/wcatron/query&#45;projects/internal/projects.contains]&#10;at projects.go:59: calling [github.com/wcatron/query&#45;projects/internal/projects.contains]">
<path fill="none" stroke="#000000" d="M430.9305,-74C459.1625,-74 490.1797,-74 514.7404,-74"/>
<polygon fill="#000000" stroke="#000000" points="514.8441,-77.5001 524.8441,-74 514.8441,-70.5001 514.8441,-77.5001"/>
</a>
</g>
</g>
<!-- github.com/wcatron/query&#45;projects/internal/projects.CloneRepository -->
<g id="node6" class="node">
<title>github.com/wcatron/query&#45;projects/internal/projects.CloneRepository</title>
<g id="a_node6"><a xlink:title="github.com/wcatron/query&#45;projects/internal/projects.CloneRepository | defined in projects.go:167">
<path fill="#add8e6" stroke="#000000" stroke-width="1.5" d="M401.219,-158C401.219,-158 306.46,-158 306.46,-158 300.46,-158 294.46,-152 294.46,-146 294.46,-146 294.46,-134 294.46,-134 294.46,-128 300.46,-122 306.46,-122 306.46,-122 401.219,-122 401.219,-122 407.219,-122 413.219,-128 413.219,-134 413.219,-134 413.219,-146 413.219,-146 413.219,-152 407.219,-158 401.219,-158"/>
<text text-anchor="middle" x="353.8395" y="-135.8" font-family="Verdana" font-size="14.00" fill="#000000">CloneRepository</text>
</a>
</g>
</g>
<!-- github.com/wcatron/query&#45;projects/internal/projects.SaveProjects -->
<g id="node7" class="node">
<title>github.com/wcatron/query&#45;projects/internal/projects.SaveProjects</title>
<g id="a_node7"><a xlink:title="github.com/wcatron/query&#45;projects/internal/projects.SaveProjects | defined in projects.go:157">
<path fill="#add8e6" stroke="#000000" stroke-width="1.5" d="M390.15,-263C390.15,-263 317.529,-263 317.529,-263 311.529,-263 305.529,-257 305.529,-251 305.529,-251 305.529,-239 305.529,-239 305.529,-233 311.529,-227 317.529,-227 317.529,-227 390.15,-227 390.15,-227 396.15,-227 402.15,-233 402.15,-239 402.15,-239 402.15,-251 402.15,-251 402.15,-257 396.15,-263 390.15,-263"/>
<text text-anchor="middle" x="353.8395" y="-240.8" font-family="Verdana" font-size="14.00" fill="#000000">SaveProjects</text>
</a>
</g>
</g>
<!-- github.com/wcatron/query&#45;projects/internal/projects.ExtractTypeScriptCode -->
<g id="node8" class="node">
<title>github.com/wcatron/query&#45;projects/internal/projects.ExtractTypeScriptCode</title>
<g id="a_node8"><a xlink:title="github.com/wcatron/query&#45;projects/internal/projects.ExtractTypeScriptCode | defined in projects.go:202">
<path fill="#add8e6" stroke="#000000" stroke-width="1.5" d="M420.0206,-604C420.0206,-604 287.6584,-604 287.6584,-604 281.6584,-604 275.6584,-598 275.6584,-592 275.6584,-592 275.6584,-580 275.6584,-580 275.6584,-574 281.6584,-568 287.6584,-568 287.6584,-568 420.0206,-568 420.0206,-568 426.0206,-568 432.0206,-574 432.0206,-580 432.0206,-580 432.0206,-592 432.0206,-592 432.0206,-598 426.0206,-604 420.0206,-604"/>
<text text-anchor="middle" x="353.8395" y="-581.8" font-family="Verdana" font-size="14.00" fill="#000000">ExtractTypeScriptCode</text>
</a>
</g>
</g>
<!-- github.com/wcatron/query&#45;projects/internal/projects.InProject -->
<g id="node9" class="node">
<title>github.com/wcatron/query&#45;projects/internal/projects.InProject</title>
<g id="a_node9"><a xlink:title="github.com/wcatron/query&#45;projects/internal/projects.InProject | defined in projects.go:121">
<path fill="#add8e6" stroke="#000000" stroke-width="1.5" d="M379.6544,-492C379.6544,-492 328.0246,-492 328.0246,-492 322.0246,-492 316.0246,-486 316.0246,-480 316.0246,-480 316.0246,-468 316.0246,-468 316.0246,-462 322.0246,-456 328.0246,-456 328.0246,-456 379.6544,-456 379.6544,-456 385.6544,-456 391.6544,-462 391.6544,-468 391.6544,-468 391.6544,-480 391.6544,-480 391.6544,-486 385.6544,-492 379.6544,-492"/>
<text text-anchor="middle" x="353.8395" y="-469.8" font-family="Verdana" font-size="14.00" fill="#000000">InProject</text>
</a>
</g>
</g>
<!-- github.com/wcatron/query&#45;projects/callvis.main -->
<g id="node10" class="node">
<title>github.com/wcatron/query&#45;projects/callvis.main</title>
<g id="a_node10"><a xlink:title="github.com/wcatron/query&#45;projects/callvis.main | defined in main.go:11&#10;at main.go:53: calling [github.com/wcatron/query&#45;projects/internal/projects.LoadProjects]&#10;at main.go:54: calling [github.com/wcatron/query&#45;projects/internal/projects.FilterProjectsByTopics]">
<path fill="#ffe4b5" stroke="#000000" stroke-width=".5" d="M128.3745,-60C128.3745,-60 98.3745,-60 98.3745,-60 92.3745,-60 86.3745,-54 86.3745,-48 86.3745,-48 86.3745,-36 86.3745,-36 86.3745,-30 92.3745,-24 98.3745,-24 98.3745,-24 128.3745,-24 128.3745,-24 134.3745,-24 140.3745,-30 140.3745,-36 140.3745,-36 140.3745,-48 140.3745,-48 140.3745,-54 134.3745,-60 128.3745,-60"/>
<text text-anchor="middle" x="113.3745" y="-37.8" font-family="Verdana" font-size="14.00" fill="#000000">main</text>
</a>
</g>
</g>
<!-- github.com/wcatron/query&#45;projects/callvis.main&#45;&gt;github.com/wcatron/query&#45;projects/internal/projects.LoadProjects -->
<g id="edge16" class="edge">
<title>github.com/wcatron/query&#45;projects/callvis.main&#45;&gt;github.com/wcatron/query&#45;projects/internal/projects.LoadProjects</title>
<g id="a_edge16"><a xlink:title="at main.go:53: calling [github.com/wcatron/query&#45;projects/internal/projects.LoadProjects]">
<path fill="none" stroke="#8b4513" d="M140.3915,-51.2212C162.1374,-59.9107 192.0575,-74.92 210.749,-97 265.435,-161.5995 218.4552,-213.7017 275.749,-276 281.4871,-282.2393 288.5215,-287.4819 295.9948,-291.8629"/>
<polygon fill="#8b4513" stroke="#8b4513" points="294.447,-295.004 304.9182,-296.6183 297.7391,-288.8264 294.447,-295.004"/>
</a>
</g>
</g>
<!-- github.com/wcatron/query&#45;projects/callvis.main&#45;&gt;github.com/wcatron/query&#45;projects/internal/projects.FilterProjectsByTopics -->
<g id="edge22" class="edge">
<title>github.com/wcatron/query&#45;projects/callvis.main&#45;&gt;github.com/wcatron/query&#45;projects/internal/projects.FilterProjectsByTopics</title>
<g id="a_edge22"><a xlink:title="at main.go:54: calling [github.com/wcatron/query&#45;projects/internal/projects.FilterProjectsByTopics]">
<path fill="none" stroke="#8b4513" d="M140.4915,-45.6086C171.0376,-49.6735 222.2447,-56.488 266.8349,-62.4218"/>
<polygon fill="#8b4513" stroke="#8b4513" points="266.4524,-65.9017 276.8267,-63.7515 267.3758,-58.9629 266.4524,-65.9017"/>
</a>
</g>
</g>
<!-- github.com/wcatron/query&#45;projects/internal/commands.CMD_addRepository -->
<g id="node11" class="node">
<title>github.com/wcatron/query&#45;projects/internal/commands.CMD_addRepository</title>
<g id="a_node11"><a xlink:title="github.com/wcatron/query&#45;projects/internal/commands.CMD_addRepository | defined in add.go:23&#10;at add.go:24: calling [github.com/wcatron/query&#45;projects/internal/projects.LoadProjects]&#10;at add.go:36: calling [github.com/wcatron/query&#45;projects/internal/projects.CloneRepository]&#10;at add.go:46: calling [github.com/wcatron/query&#45;projects/internal/projects.SaveProjects]">
<path fill="#ffe4b5" stroke="#000000" stroke-width="1.5" d="M173.4152,-269C173.4152,-269 53.3338,-269 53.3338,-269 47.3338,-269 41.3338,-263 41.3338,-257 41.3338,-257 41.3338,-245 41.3338,-245 41.3338,-239 47.3338,-233 53.3338,-233 53.3338,-233 173.4152,-233 173.4152,-233 179.4152,-233 185.4152,-239 185.4152,-245 185.4152,-245 185.4152,-257 185.4152,-257 185.4152,-263 179.4152,-269 173.4152,-269"/>
<text text-anchor="middle" x="113.3745" y="-246.8" font-family="Verdana" font-size="14.00" fill="#000000">CMD_addRepository</text>
</a>
</g>
</g>
<!-- github.com/wcatron/query&#45;projects/internal/commands.CMD_addRepository&#45;&gt;github.com/wcatron/query&#45;projects/internal/projects.LoadProjects -->
<g id="edge8" class="edge">
<title>github.com/wcatron/query&#45;projects/internal/commands.CMD_addRepository&#45;&gt;github.com/wcatron/query&#45;projects/internal/projects.LoadProjects</title>
<g id="a_edge8"><a xlink:title="at add.go:24: calling [github.com/wcatron/query&#45;projects/internal/projects.LoadProjects]">
<path fill="none" stroke="#8b4513" d="M184.5459,-269.0544C219.688,-277.9691 261.5795,-288.5959 294.8987,-297.0482"/>
<polygon fill="#8b4513" stroke="#8b4513" points="294.3933,-300.5308 304.9469,-299.5972 296.1145,-293.7457 294.3933,-300.5308"/>
</a>
</g>
</g>
<!-- github.com/wcatron/query&#45;projects/internal/commands.CMD_addRepository&#45;&gt;github.com/wcatron/query&#45;projects/internal/projects.CloneRepository -->
<g id="edge9" class="edge">
<title>github.com/wcatron/query&#45;projects/internal/commands.CMD_addRepository&#45;&gt;github.com/wcatron/query&#45;projects/internal/projects.CloneRepository</title>
<g id="a_edge9"><a xlink:title="at add.go:36: calling [github.com/wcatron/query&#45;projects/internal/projects.CloneRepository]">
<path fill="none" stroke="#8b4513" d="M178.7694,-232.9922C189.5968,-229.404 200.5962,-225.3764 210.749,-221 248.5962,-204.6861 289.2653,-181.0105 317.5358,-163.4655"/>
<polygon fill="#8b4513" stroke="#8b4513" points="319.6425,-166.276 326.2596,-158.0016 315.9268,-160.3435 319.6425,-166.276"/>
</a>
</g>
</g>
<!-- github.com/wcatron/query&#45;projects/internal/commands.CMD_addRepository&#45;&gt;github.com/wcatron/query&#45;projects/internal/projects.SaveProjects -->
<g id="edge18" class="edge">
<title>github.com/wcatron/query&#45;projects/internal/commands.CMD_addRepository&#45;&gt;github.com/wcatron/query&#45;projects/internal/projects.SaveProjects</title>
<g id="a_edge18"><a xlink:title="at add.go:46: calling [github.com/wcatron/query&#45;projects/internal/projects.SaveProjects]">
<path fill="none" stroke="#8b4513" d="M185.5219,-249.1998C220.4746,-248.3277 261.9185,-247.2936 294.9357,-246.4697"/>
<polygon fill="#8b4513" stroke="#8b4513" points="295.431,-249.9586 305.3406,-246.2101 295.2564,-242.9607 295.431,-249.9586"/>
</a>
</g>
</g>
<!-- github.com/wcatron/query&#45;projects/internal/commands.generateScriptForQuestion -->
<g id="node12" class="node">
<title>github.com/wcatron/query&#45;projects/internal/commands.generateScriptForQuestion</title>
<g id="a_node12"><a xlink:title="github.com/wcatron/query&#45;projects/internal/commands.generateScriptForQuestion | defined in ask.go:170&#10;at ask.go:193: calling [github.com/wcatron/query&#45;projects/internal/projects.ExtractTypeScriptCode]">
<path fill="#ffe4b5" stroke="#000000" stroke-width=".5" d="M188.7134,-635C188.7134,-635 38.0356,-635 38.0356,-635 32.0356,-635 26.0356,-629 26.0356,-623 26.0356,-623 26.0356,-611 26.0356,-611 26.0356,-605 32.0356,-599 38.0356,-599 38.0356,-599 188.7134,-599 188.7134,-599 194.7134,-599 200.7134,-605 200.7134,-611 200.7134,-611 200.7134,-623 200.7134,-623 200.7134,-629 194.7134,-635 188.7134,-635"/>
<text text-anchor="middle" x="113.3745" y="-612.8" font-family="Verdana" font-size="14.00" fill="#000000">generateScriptForQuestion</text>
</a>
</g>
</g>
<!-- github.com/wcatron/query&#45;projects/internal/commands.generateScriptForQuestion&#45;&gt;github.com/wcatron/query&#45;projects/internal/projects.ExtractTypeScriptCode -->
<g id="edge19" class="edge">
<title>github.com/wcatron/query&#45;projects/internal/commands.generateScriptForQuestion&#45;&gt;github.com/wcatron/query&#45;projects/internal/projects.ExtractTypeScriptCode</title>
<g id="a_edge19"><a xlink:title="at ask.go:193: calling [github.com/wcatron/query&#45;projects/internal/projects.ExtractTypeScriptCode]">
<path fill="none" stroke="#8b4513" d="M200.8681,-605.7206C221.9669,-603.0006 244.5217,-600.0929 265.652,-597.3689"/>
<polygon fill="#8b4513" stroke="#8b4513" points="266.1023,-600.8399 275.5727,-596.0899 265.2072,-593.8973 266.1023,-600.8399"/>
</a>
</g>
</g>
<!-- github.com/wcatron/query&#45;projects/internal/commands.CMD_ask -->
<g id="node13" class="node">
<title>github.com/wcatron/query&#45;projects/internal/commands.CMD_ask</title>
<g id="a_node13"><a xlink:title="github.com/wcatron/query&#45;projects/internal/commands.CMD_ask | defined in ask.go:37&#10;at ask.go:46: calling [github.com/wcatron/query&#45;projects/internal/projects.LoadProjects]">
<path fill="#ffe4b5" stroke="#000000" stroke-width="1.5" d="M141.9228,-391C141.9228,-391 84.8262,-391 84.8262,-391 78.8262,-391 72.8262,-385 72.8262,-379 72.8262,-379 72.8262,-367 72.8262,-367 72.8262,-361 78.8262,-355 84.8262,-355 84.8262,-355 141.9228,-355 141.9228,-355 147.9228,-355 153.9228,-361 153.9228,-367 153.9228,-367 153.9228,-379 153.9228,-379 153.9228,-385 147.9228,-391 141.9228,-391"/>
<text text-anchor="middle" x="113.3745" y="-368.8" font-family="Verdana" font-size="14.00" fill="#000000">CMD_ask</text>
</a>
</g>
</g>
<!-- github.com/wcatron/query&#45;projects/internal/commands.CMD_ask&#45;&gt;github.com/wcatron/query&#45;projects/internal/projects.LoadProjects -->
<g id="edge2" class="edge">
<title>github.com/wcatron/query&#45;projects/internal/commands.CMD_ask&#45;&gt;github.com/wcatron/query&#45;projects/internal/projects.LoadProjects</title>
<g id="a_edge2"><a xlink:title="at ask.go:46: calling [github.com/wcatron/query&#45;projects/internal/projects.LoadProjects]">
<path fill="none" stroke="#8b4513" d="M154.1661,-362.6522C192.8272,-352.8448 251.3239,-338.0057 295.0231,-326.9203"/>
<polygon fill="#8b4513" stroke="#8b4513" points="296.1168,-330.2538 304.9492,-324.4023 294.3955,-323.4687 296.1168,-330.2538"/>
</a>
</g>
</g>
<!-- github.com/wcatron/query&#45;projects/internal/commands.modifyScriptBasedOnInput -->
<g id="node14" class="node">
<title>github.com/wcatron/query&#45;projects/internal/commands.modifyScriptBasedOnInput</title>
<g id="a_node14"><a xlink:title="github.com/wcatron/query&#45;projects/internal/commands.modifyScriptBasedOnInput | defined in ask.go:210&#10;at ask.go:224: calling [github.com/wcatron/query&#45;projects/internal/projects.ExtractTypeScriptCode]">
<path fill="#ffe4b5" stroke="#000000" stroke-width=".5" d="M190.6237,-574C190.6237,-574 36.1253,-574 36.1253,-574 30.1253,-574 24.1253,-568 24.1253,-562 24.1253,-562 24.1253,-550 24.1253,-550 24.1253,-544 30.1253,-538 36.1253,-538 36.1253,-538 190.6237,-538 190.6237,-538 196.6237,-538 202.6237,-544 202.6237,-550 202.6237,-550 202.6237,-562 202.6237,-562 202.6237,-568 196.6237,-574 190.6237,-574"/>
<text text-anchor="middle" x="113.3745" y="-551.8" font-family="Verdana" font-size="14.00" fill="#000000">modifyScriptBasedOnInput</text>
</a>
</g>
</g>
<!-- github.com/wcatron/query&#45;projects/internal/commands.modifyScriptBasedOnInput&#45;&gt;github.com/wcatron/query&#45;projects/internal/projects.ExtractTypeScriptCode -->
<g id="edge3" class="edge">
<title>github.com/wcatron/query&#45;projects/internal/commands.modifyScriptBasedOnInput&#45;&gt;github.com/wcatron/query&#45;projects/internal/projects.ExtractTypeScriptCode</title>
<g id="a_edge3"><a xlink:title="at ask.go:224: calling [github.com/wcatron/query&#45;projects/internal/projects.ExtractTypeScriptCode]">
<path fill="none" stroke="#8b4513" d="M202.9148,-567.1709C223.4555,-569.7335 245.2771,-572.4559 265.7558,-575.0108"/>
<polygon fill="#8b4513" stroke="#8b4513" points="265.3331,-578.4851 275.6895,-576.2501 266.1998,-571.539 265.3331,-578.4851"/>
</a>
</g>
</g>
<!-- github.com/wcatron/query&#45;projects/internal/commands.CMD_plan -->
<g id="node15" class="node">
<title>github.com/wcatron/query&#45;projects/internal/commands.CMD_plan</title>
<g id="a_node15"><a xlink:title="github.com/wcatron/query&#45;projects/internal/commands.CMD_plan | defined in plan.go:30&#10;at plan.go:34: calling [github.com/wcatron/query&#45;projects/internal/projects.LoadProjects]&#10;at plan.go:38: calling [github.com/wcatron/query&#45;projects/internal/projects.FilterProjectsByTopics]">
<path fill="#ffe4b5" stroke="#000000" stroke-width="1.5" d="M144.8675,-147C144.8675,-147 81.8815,-147 81.8815,-147 75.8815,-147 69.8815,-141 69.8815,-135 69.8815,-135 69.8815,-123 69.8815,-123 69.8815,-117 75.8815,-111 81.8815,-111 81.8815,-111 144.8675,-111 144.8675,-111 150.8675,-111 156.8675,-117 156.8675,-123 156.8675,-123 156.8675,-135 156.8675,-135 156.8675,-141 150.8675,-147 144.8675,-147"/>
<text text-anchor="middle" x="113.3745" y="-124.8" font-family="Verdana" font-size="14.00" fill="#000000">CMD_plan</text>
</a>
</g>
</g>
<!-- github.com/wcatron/query&#45;projects/internal/commands.CMD_plan&#45;&gt;github.com/wcatron/query&#45;projects/internal/projects.LoadProjects -->
<g id="edge11" class="edge">
<title>github.com/wcatron/query&#45;projects/internal/commands.CMD_plan&#45;&gt;github.com/wcatron/query&#45;projects/internal/projects.LoadProjects</title>
<g id="a_edge11"><a xlink:title="at plan.go:34: calling [github.com/wcatron/query&#45;projects/internal/projects.LoadProjects]">
<path fill="none" stroke="#8b4513" d="M157.1035,-134.9727C175.2571,-139.2381 195.5786,-146.5339 210.749,-159 231.0288,-175.6648 226.0333,-188.037 238.749,-211 254.8522,-240.0805 251.2605,-253.5211 275.749,-276 281.6259,-281.3947 288.452,-286.1058 295.5748,-290.1836"/>
<polygon fill="#8b4513" stroke="#8b4513" points="294.2306,-293.432 304.7066,-295.014 297.5036,-287.2444 294.2306,-293.432"/>
</a>
</g>
</g>
<!-- github.com/wcatron/query&#45;projects/internal/commands.CMD_plan&#45;&gt;github.com/wcatron/query&#45;projects/internal/projects.FilterProjectsByTopics -->
<g id="edge12" class="edge">
<title>github.com/wcatron/query&#45;projects/internal/commands.CMD_plan&#45;&gt;github.com/wcatron/query&#45;projects/internal/projects.FilterProjectsByTopics</title>
<g id="a_edge12"><a xlink:title="at plan.go:38: calling [github.com/wcatron/query&#45;projects/internal/projects.FilterProjectsByTopics]">
<path fill="none" stroke="#8b4513" d="M156.8847,-117.7405C173.8443,-113.0268 193.3516,-107.202 210.749,-101 223.502,-96.4537 225.6905,-92.5754 238.749,-89 247.7641,-86.5317 257.2909,-84.4654 266.848,-82.7365"/>
<polygon fill="#8b4513" stroke="#8b4513" points="267.5217,-86.1723 276.7983,-81.0542 266.3547,-79.2703 267.5217,-86.1723"/>
</a>
</g>
</g>
<!-- github.com/wcatron/query&#45;projects/internal/commands.CMD_runScript -->
<g id="node16" class="node">
<title>github.com/wcatron/query&#45;projects/internal/commands.CMD_runScript</title>
<g id="a_node16"><a xlink:title="github.com/wcatron/query&#45;projects/internal/commands.CMD_runScript | defined in run.go:63&#10;at run.go:68: calling [github.com/wcatron/query&#45;projects/internal/projects.FilterProjectsByTopics]&#10;at run.go:64: calling [github.com/wcatron/query&#45;projects/internal/projects.LoadProjects]&#10;at run.go:80: calling [github.com/wcatron/query&#45;projects/internal/projects.InProject]">
<path fill="#ffe4b5" stroke="#000000" stroke-width="1.5" d="M158.8619,-452C158.8619,-452 67.8871,-452 67.8871,-452 61.8871,-452 55.8871,-446 55.8871,-440 55.8871,-440 55.8871,-428 55.8871,-428 55.8871,-422 61.8871,-416 67.8871,-416 67.8871,-416 158.8619,-416 158.8619,-416 164.8619,-416 170.8619,-422 170.8619,-428 170.8619,-428 170.8619,-440 170.8619,-440 170.8619,-446 164.8619,-452 158.8619,-452"/>
<text text-anchor="middle" x="113.3745" y="-429.8" font-family="Verdana" font-size="14.00" fill="#000000">CMD_runScript</text>
</a>
</g>
</g>
<!-- github.com/wcatron/query&#45;projects/internal/commands.CMD_runScript&#45;&gt;github.com/wcatron/query&#45;projects/internal/projects.LoadProjects -->
<g id="edge10" class="edge">
<title>github.com/wcatron/query&#45;projects/internal/commands.CMD_runScript&#45;&gt;github.com/wcatron/query&#45;projects/internal/projects.LoadProjects</title>
<g id="a_edge10"><a xlink:title="at run.go:64: calling [github.com/wcatron/query&#45;projects/internal/projects.LoadProjects]">
<path fill="none" stroke="#8b4513" d="M170.9913,-419.0936C184.3098,-414.8731 198.237,-409.8162 210.749,-404 251.2813,-385.1587 293.8997,-356.4407 321.9715,-336.109"/>
<polygon fill="#8b4513" stroke="#8b4513" points="324.1951,-338.8188 330.198,-330.0886 320.0611,-333.1699 324.1951,-338.8188"/>
</a>
</g>
</g>
<!-- github.com/wcatron/query&#45;projects/internal/commands.CMD_runScript&#45;&gt;github.com/wcatron/query&#45;projects/internal/projects.FilterProjectsByTopics -->
<g id="edge4" class="edge">
<title>github.com/wcatron/query&#45;projects/internal/commands.CMD_runScript&#45;&gt;github.com/wcatron/query&#45;projects/internal/projects.FilterProjectsByTopics</title>
<g id="a_edge4"><a xlink:title="at run.go:68: calling [github.com/wcatron/query&#45;projects/internal/projects.FilterProjectsByTopics]">
<path fill="none" stroke="#8b4513" d="M171.0218,-426.8382C185.7358,-422.4095 200.3219,-415.3191 210.749,-404 301.712,-305.2558 191.0005,-213.1268 275.749,-109 279.2072,-104.751 283.2895,-100.9999 287.7442,-97.6914"/>
<polygon fill="#8b4513" stroke="#8b4513" points="289.6695,-100.6143 296.1105,-92.2022 285.8295,-94.7616 289.6695,-100.6143"/>
</a>
</g>
</g>
<!-- github.com/wcatron/query&#45;projects/internal/commands.CMD_runScript&#45;&gt;github.com/wcatron/query&#45;projects/internal/projects.InProject -->
<g id="edge13" class="edge">
<title>github.com/wcatron/query&#45;projects/internal/commands.CMD_runScript&#45;&gt;github.com/wcatron/query&#45;projects/internal/projects.InProject</title>
<g id="a_edge13"><a xlink:title="at run.go:80: calling [github.com/wcatron/query&#45;projects/internal/projects.InProject]">
<path fill="none" stroke="#8b4513" d="M170.9719,-443.581C212.1694,-450.434 266.979,-459.5512 305.8187,-466.012"/>
<polygon fill="#8b4513" stroke="#8b4513" points="305.3885,-469.4885 315.8273,-467.6769 306.5372,-462.5833 305.3885,-469.4885"/>
</a>
</g>
</g>
<!-- github.com/wcatron/query&#45;projects/internal/commands.CMD_info -->
<g id="node17" class="node">
<title>github.com/wcatron/query&#45;projects/internal/commands.CMD_info</title>
<g id="a_node17"><a xlink:title="github.com/wcatron/query&#45;projects/internal/commands.CMD_info | defined in info.go:21&#10;at info.go:22: calling [github.com/wcatron/query&#45;projects/internal/projects.LoadProjects]">
<path fill="#ffe4b5" stroke="#000000" stroke-width="1.5" d="M144.3146,-513C144.3146,-513 82.4344,-513 82.4344,-513 76.4344,-513 70.4344,-507 70.4344,-501 70.4344,-501 70.4344,-489 70.4344,-489 70.4344,-483 76.4344,-477 82.4344,-477 82.4344,-477 144.3146,-477 144.3146,-477 150.3146,-477 156.3146,-483 156.3146,-489 156.3146,-489 156.3146,-501 156.3146,-501 156.3146,-507 150.3146,-513 144.3146,-513"/>
<text text-anchor="middle" x="113.3745" y="-490.8" font-family="Verdana" font-size="14.00" fill="#000000">CMD_info</text>
</a>
</g>
</g>
<!-- github.com/wcatron/query&#45;projects/internal/commands.CMD_info&#45;&gt;github.com/wcatron/query&#45;projects/internal/projects.LoadProjects -->
<g id="edge5" class="edge">
<title>github.com/wcatron/query&#45;projects/internal/commands.CMD_info&#45;&gt;github.com/wcatron/query&#45;projects/internal/projects.LoadProjects</title>
<g id="a_edge5"><a xlink:title="at info.go:22: calling [github.com/wcatron/query&#45;projects/internal/projects.LoadProjects]">
<path fill="none" stroke="#8b4513" d="M156.1658,-486.924C173.9526,-482.307 194.251,-475.3172 210.749,-465 264.3894,-431.4555 311.2013,-372.8531 335.6971,-338.7358"/>
<polygon fill="#8b4513" stroke="#8b4513" points="338.8077,-340.3986 341.7184,-330.2114 333.0902,-336.3599 338.8077,-340.3986"/>
</a>
</g>
</g>
<!-- github.com/wcatron/query&#45;projects/internal/commands.CMD_pullRepos -->
<g id="node18" class="node">
<title>github.com/wcatron/query&#45;projects/internal/commands.CMD_pullRepos</title>
<g id="a_node18"><a xlink:title="github.com/wcatron/query&#45;projects/internal/commands.CMD_pullRepos | defined in pull.go:20&#10;at pull.go:21: calling [github.com/wcatron/query&#45;projects/internal/projects.LoadProjects]&#10;at pull.go:28: calling [github.com/wcatron/query&#45;projects/internal/projects.CloneRepository]&#10;at pull.go:25: calling [github.com/wcatron/query&#45;projects/internal/projects.FilterProjectsByTopics]">
<path fill="#ffe4b5" stroke="#000000" stroke-width="1.5" d="M161.0398,-208C161.0398,-208 65.7092,-208 65.7092,-208 59.7092,-208 53.7092,-202 53.7092,-196 53.7092,-196 53.7092,-184 53.7092,-184 53.7092,-178 59.7092,-172 65.7092,-172 65.7092,-172 161.0398,-172 161.0398,-172 167.0398,-172 173.0398,-178 173.0398,-184 173.0398,-184 173.0398,-196 173.0398,-196 173.0398,-202 167.0398,-208 161.0398,-208"/>
<text text-anchor="middle" x="113.3745" y="-185.8" font-family="Verdana" font-size="14.00" fill="#000000">CMD_pullRepos</text>
</a>
</g>
</g>
<!-- github.com/wcatron/query&#45;projects/internal/commands.CMD_pullRepos&#45;&gt;github.com/wcatron/query&#45;projects/internal/projects.LoadProjects -->
<g id="edge6" class="edge">
<title>github.com/wcatron/query&#45;projects/internal/commands.CMD_pullRepos&#45;&gt;github.com/wcatron/query&#45;projects/internal/projects.LoadProjects</title>
<g id="a_edge6"><a xlink:title="at pull.go:21: calling [github.com/wcatron/query&#45;projects/internal/projects.LoadProjects]">
<path fill="none" stroke="#8b4513" d="M173.1114,-204.9184C185.9266,-209.2323 199.1055,-214.5597 210.749,-221 243.864,-239.3165 243.83,-255.6708 275.749,-276 283.2509,-280.778 291.4905,-285.2818 299.7182,-289.3804"/>
<polygon fill="#8b4513" stroke="#8b4513" points="298.4338,-292.6464 308.9624,-293.8286 301.469,-286.3387 298.4338,-292.6464"/>
</a>
</g>
</g>
<!-- github.com/wcatron/query&#45;projects/internal/commands.CMD_pullRepos&#45;&gt;github.com/wcatron/query&#45;projects/internal/projects.FilterProjectsByTopics -->
<g id="edge20" class="edge">
<title>github.com/wcatron/query&#45;projects/internal/commands.CMD_pullRepos&#45;&gt;github.com/wcatron/query&#45;projects/internal/projects.FilterProjectsByTopics</title>
<g id="a_edge20"><a xlink:title="at pull.go:25: calling [github.com/wcatron/query&#45;projects/internal/projects.FilterProjectsByTopics]">
<path fill="none" stroke="#8b4513" d="M173.1955,-174.6771C185.9403,-170.3976 199.0689,-165.1864 210.749,-159 224.7346,-151.5924 226.2163,-146.6644 238.749,-137 255.0798,-124.4068 258.0038,-119.5068 275.749,-109 283.2726,-104.5454 291.464,-100.2892 299.6186,-96.3756"/>
<polygon fill="#8b4513" stroke="#8b4513" points="301.1862,-99.5065 308.7721,-92.1103 298.2296,-93.1615 301.1862,-99.5065"/>
</a>
</g>
</g>
<!-- github.com/wcatron/query&#45;projects/internal/commands.CMD_pullRepos&#45;&gt;github.com/wcatron/query&#45;projects/internal/projects.CloneRepository -->
<g id="edge14" class="edge">
<title>github.com/wcatron/query&#45;projects/internal/commands.CMD_pullRepos&#45;&gt;github.com/wcatron/query&#45;projects/internal/projects.CloneRepository</title>
<g id="a_edge14"><a xlink:title="at pull.go:28: calling [github.com/wcatron/query&#45;projects/internal/projects.CloneRepository]">
<path fill="none" stroke="#8b4513" d="M173.0738,-173.1906C185.6985,-169.029 198.8091,-164.2418 210.749,-159 223.8729,-153.2384 224.9454,-146.859 238.749,-143 253.0599,-138.9992 268.7651,-137.0691 283.8478,-136.3444"/>
<polygon fill="#8b4513" stroke="#8b4513" points="284.2787,-139.8328 294.1655,-136.0247 284.0618,-132.8362 284.2787,-139.8328"/>
</a>
</g>
</g>
<!-- github.com/wcatron/query&#45;projects/internal/commands.CMD_syncRepos -->
<g id="node19" class="node">
<title>github.com/wcatron/query&#45;projects/internal/commands.CMD_syncRepos</title>
<g id="a_node19"><a xlink:title="github.com/wcatron/query&#45;projects/internal/commands.CMD_syncRepos | defined in sync.go:80&#10;at sync.go:106: calling [github.com/wcatron/query&#45;projects/internal/projects.SaveProjects]&#10;at sync.go:81: calling [github.com/wcatron/query&#45;projects/internal/projects.LoadProjects]">
<path fill="#ffe4b5" stroke="#000000" stroke-width="1.5" d="M162.9181,-330C162.9181,-330 63.8309,-330 63.8309,-330 57.8309,-330 51.8309,-324 51.8309,-318 51.8309,-318 51.8309,-306 51.8309,-306 51.8309,-300 57.8309,-294 63.8309,-294 63.8309,-294 162.9181,-294 162.9181,-294 168.9181,-294 174.9181,-300 174.9181,-306 174.9181,-306 174.9181,-318 174.9181,-318 174.9181,-324 168.9181,-330 162.9181,-330"/>
<text text-anchor="middle" x="113.3745" y="-307.8" font-family="Verdana" font-size="14.00" fill="#000000">CMD_syncRepos</text>
</a>
</g>
</g>
<!-- github.com/wcatron/query&#45;projects/internal/commands.CMD_syncRepos&#45;&gt;github.com/wcatron/query&#45;projects/internal/projects.LoadProjects -->
<g id="edge21" class="edge">
<title>github.com/wcatron/query&#45;projects/internal/commands.CMD_syncRepos&#45;&gt;github.com/wcatron/query&#45;projects/internal/projects.LoadProjects</title>
<g id="a_edge21"><a xlink:title="at sync.go:81: calling [github.com/wcatron/query&#45;projects/internal/projects.LoadProjects]">
<path fill="none" stroke="#8b4513" d="M175.0546,-317.5424C195.6216,-318.8234 218.6642,-319.6462 239.749,-319 257.5737,-318.4537 276.9427,-317.4284 294.5756,-316.3277"/>
<polygon fill="#8b4513" stroke="#8b4513" points="294.9776,-319.8091 304.7321,-315.6739 294.5279,-312.8236 294.9776,-319.8091"/>
</a>
</g>
</g>
<!-- github.com/wcatron/query&#45;projects/internal/commands.CMD_syncRepos&#45;&gt;github.com/wcatron/query&#45;projects/internal/projects.SaveProjects -->
<g id="edge15" class="edge">
<title>github.com/wcatron/query&#45;projects/internal/commands.CMD_syncRepos&#45;&gt;github.com/wcatron/query&#45;projects/internal/projects.SaveProjects</title>
<g id="a_edge15"><a xlink:title="at sync.go:106: calling [github.com/wcatron/query&#45;projects/internal/projects.SaveProjects]">
<path fill="none" stroke="#8b4513" d="M174.988,-294.8328C212.1288,-284.4844 259.1503,-271.383 295.6577,-261.211"/>
<polygon fill="#8b4513" stroke="#8b4513" points="296.9652,-264.4801 305.6588,-258.4244 295.0863,-257.7369 296.9652,-264.4801"/>
</a>
</g>
</g>
</g>
</svg>
