<?xml version="1.0" encoding="UTF-8" standalone="no"?>
<!DOCTYPE svg PUBLIC "-//W3C//DTD SVG 1.1//EN"
 "http://www.w3.org/Graphics/SVG/1.1/DTD/svg11.dtd">
<!-- Generated by graphviz version 2.40.1 (20161225.0304)
 -->
<!-- Title: gocallvis Pages: 1 -->
<svg width="635pt" height="342pt"
 viewBox="0.00 0.00 635.12 342.00" xmlns="http://www.w3.org/2000/svg" xmlns:xlink="http://www.w3.org/1999/xlink">
<g id="graph0" class="graph" transform="scale(1 1) rotate(0) translate(0 342)">
<title>gocallvis</title>
<polygon fill="#d3d3d3" stroke="transparent" points="0,0 0,-342 635.1236,-342 635.1236,0 0,0"/>
<g id="clust1" class="cluster">
<title>cluster_focus</title>
<polygon fill="#e6ecfa" stroke="#000000" stroke-width=".5" points="8,-8 8,-334 627.1236,-334 627.1236,-8 8,-8"/>
<text text-anchor="middle" x="317.5618" y="-313.8" font-family="Arial" font-size="18.00" fill="#000000">outputs</text>
</g>
<g id="clust4" class="cluster">
<title>cluster_github.com/wcatron/query&#45;projects/internal/commands</title>
<g id="a_clust4"><a xlink:href="/?f=github.com/wcatron/query-projects/internal/commands" xlink:title="package: github.com/wcatron/query&#45;projects/internal/commands">
<polygon fill="#ffffe0" stroke="#000000" stroke-width=".8" points="16,-152 16,-292 199.864,-292 199.864,-152 16,-152"/>
<text text-anchor="middle" x="107.932" y="-273.6" font-family="Tahoma bold" font-size="16.00" fill="#000000">commands</text>
</a>
</g>
</g>
<g id="clust3" class="cluster">
<title>cluster_github.com/wcatron/query&#45;projects/callvis</title>
<g id="a_clust3"><a xlink:href="/?f=github.com/wcatron/query-projects/callvis" xlink:title="package: github.com/wcatron/query&#45;projects/callvis">
<polygon fill="#ffffe0" stroke="#000000" stroke-width=".8" points="72.932,-44 72.932,-123 142.932,-123 142.932,-44 72.932,-44"/>
<text text-anchor="middle" x="107.932" y="-104.6" font-family="Tahoma bold" font-size="16.00" fill="#000000">main</text>
</a>
</g>
</g>
<g id="clust2" class="cluster">
<title>cluster_github.com/charmbracelet/glamour</title>
<g id="a_clust2"><a xlink:href="/?f=github.com/charmbracelet/glamour" xlink:title="package: github.com/charmbracelet/glamour">
<polygon fill="#ffffe0" stroke="#000000" stroke-width=".8" points="502.3802,-191 502.3802,-270 582.8066,-270 582.8066,-191 502.3802,-191"/>
<text text-anchor="middle" x="542.5934" y="-251.6" font-family="Tahoma bold" font-size="16.00" fill="#000000">glamour</text>
</a>
</g>
</g>
<!-- github.com/wcatron/query&#45;projects/internal/outputs.PrintToConsole -->
<g id="node1" class="node">
<title>github.com/wcatron/query&#45;projects/internal/outputs.PrintToConsole</title>
<g id="a_node1"><a xlink:title="github.com/wcatron/query&#45;projects/internal/outputs.PrintToConsole | defined in markdown.go:36&#10;at markdown.go:37: calling [github.com/wcatron/query&#45;projects/internal/outputs.createMarkdownString]&#10;at markdown.go:40: calling [github.com/charmbracelet/glamour.Render]">
<path fill="#add8e6" stroke="#000000" stroke-width="1.5" d="M373.1275,-235C373.1275,-235 284.7997,-235 284.7997,-235 278.7997,-235 272.7997,-229 272.7997,-223 272.7997,-223 272.7997,-211 272.7997,-211 272.7997,-205 278.7997,-199 284.7997,-199 284.7997,-199 373.1275,-199 373.1275,-199 379.1275,-199 385.1275,-205 385.1275,-211 385.1275,-211 385.1275,-223 385.1275,-223 385.1275,-229 379.1275,-235 373.1275,-235"/>
<text text-anchor="middle" x="328.9636" y="-212.8" font-family="Verdana" font-size="14.00" fill="#000000">PrintToConsole</text>
</a>
</g>
</g>
<!-- github.com/wcatron/query&#45;projects/internal/outputs.createMarkdownString -->
<g id="node2" class="node">
<title>github.com/wcatron/query&#45;projects/internal/outputs.createMarkdownString</title>
<g id="a_node2"><a xlink:title="github.com/wcatron/query&#45;projects/internal/outputs.createMarkdownString | defined in markdown.go:14">
<path fill="#add8e6" stroke="#000000" stroke-width=".5" d="M607.1538,-113C607.1538,-113 478.033,-113 478.033,-113 472.033,-113 466.033,-107 466.033,-101 466.033,-101 466.033,-89 466.033,-89 466.033,-83 472.033,-77 478.033,-77 478.033,-77 607.1538,-77 607.1538,-77 613.1538,-77 619.1538,-83 619.1538,-89 619.1538,-89 619.1538,-101 619.1538,-101 619.1538,-107 613.1538,-113 607.1538,-113"/>
<text text-anchor="middle" x="542.5934" y="-90.8" font-family="Verdana" font-size="14.00" fill="#000000">createMarkdownString</text>
</a>
</g>
</g>
<!-- github.com/wcatron/query&#45;projects/internal/outputs.PrintToConsole&#45;&gt;github.com/wcatron/query&#45;projects/internal/outputs.createMarkdownString -->
<g id="edge1" class="edge">
<title>github.com/wcatron/query&#45;projects/internal/outputs.PrintToConsole&#45;&gt;github.com/wcatron/query&#45;projects/internal/outputs.createMarkdownString</title>
<g id="a_edge1"><a xlink:title="at markdown.go:37: calling [github.com/wcatron/query&#45;projects/internal/outputs.createMarkdownString]">
<path fill="none" stroke="#000000" d="M369.3181,-198.9687C377.2706,-195.1762 385.4933,-191.083 393.0632,-187 432.984,-165.4676 477.0198,-137.8816 506.8973,-118.5556"/>
<polygon fill="#000000" stroke="#000000" points="508.8348,-121.4707 515.3137,-113.0877 505.0212,-115.6007 508.8348,-121.4707"/>
</a>
</g>
</g>
<!-- github.com/charmbracelet/glamour.Render -->
<g id="node7" class="node">
<title>github.com/charmbracelet/glamour.Render</title>
<g id="a_node7"><a xlink:title="github.com/charmbracelet/glamour.Render | defined in glamour.go:45">
<path fill="#ffe4b5" stroke="#000000" stroke-width="1.5" d="M563.0212,-235C563.0212,-235 522.1656,-235 522.1656,-235 516.1656,-235 510.1656,-229 510.1656,-223 510.1656,-223 510.1656,-211 510.1656,-211 510.1656,-205 516.1656,-199 522.1656,-199 522.1656,-199 563.0212,-199 563.0212,-199 569.0212,-199 575.0212,-205 575.0212,-211 575.0212,-211 575.0212,-223 575.0212,-223 575.0212,-229 569.0212,-235 563.0212,-235"/>
<text text-anchor="middle" x="542.5934" y="-212.8" font-family="Verdana" font-size="14.00" fill="#000000">Render</text>
</a>
</g>
</g>
<!-- github.com/wcatron/query&#45;projects/internal/outputs.PrintToConsole&#45;&gt;github.com/charmbracelet/glamour.Render -->
<g id="edge2" class="edge">
<title>github.com/wcatron/query&#45;projects/internal/outputs.PrintToConsole&#45;&gt;github.com/charmbracelet/glamour.Render</title>
<g id="a_edge2"><a xlink:title="at markdown.go:40: calling [github.com/charmbracelet/glamour.Render]">
<path fill="none" stroke="#8b4513" d="M385.3718,-217C421.2895,-217 467.0737,-217 499.959,-217"/>
<polygon fill="#8b4513" stroke="#8b4513" points="500.154,-220.5001 510.154,-217 500.1539,-213.5001 500.154,-220.5001"/>
</a>
</g>
</g>
<!-- github.com/wcatron/query&#45;projects/internal/outputs.FormatOutput -->
<g id="node3" class="node">
<title>github.com/wcatron/query&#45;projects/internal/outputs.FormatOutput</title>
<g id="a_node3"><a xlink:title="github.com/wcatron/query&#45;projects/internal/outputs.FormatOutput | defined in csv.go:14">
<path fill="#add8e6" stroke="#000000" stroke-width="1.5" d="M368.7909,-296C368.7909,-296 289.1363,-296 289.1363,-296 283.1363,-296 277.1363,-290 277.1363,-284 277.1363,-284 277.1363,-272 277.1363,-272 277.1363,-266 283.1363,-260 289.1363,-260 289.1363,-260 368.7909,-260 368.7909,-260 374.7909,-260 380.7909,-266 380.7909,-272 380.7909,-272 380.7909,-284 380.7909,-284 380.7909,-290 374.7909,-296 368.7909,-296"/>
<text text-anchor="middle" x="328.9636" y="-273.8" font-family="Verdana" font-size="14.00" fill="#000000">FormatOutput</text>
</a>
</g>
</g>
<!-- github.com/wcatron/query&#45;projects/internal/outputs.WriteTable -->
<g id="node4" class="node">
<title>github.com/wcatron/query&#45;projects/internal/outputs.WriteTable</title>
<g id="a_node4"><a xlink:title="github.com/wcatron/query&#45;projects/internal/outputs.WriteTable | defined in markdown.go:49&#10;at markdown.go:54: calling [github.com/wcatron/query&#45;projects/internal/outputs.createMarkdownString]">
<path fill="#add8e6" stroke="#000000" stroke-width="1.5" d="M360.7074,-52C360.7074,-52 297.2198,-52 297.2198,-52 291.2198,-52 285.2198,-46 285.2198,-40 285.2198,-40 285.2198,-28 285.2198,-28 285.2198,-22 291.2198,-16 297.2198,-16 297.2198,-16 360.7074,-16 360.7074,-16 366.7074,-16 372.7074,-22 372.7074,-28 372.7074,-28 372.7074,-40 372.7074,-40 372.7074,-46 366.7074,-52 360.7074,-52"/>
<text text-anchor="middle" x="328.9636" y="-29.8" font-family="Verdana" font-size="14.00" fill="#000000">WriteTable</text>
</a>
</g>
</g>
<!-- github.com/wcatron/query&#45;projects/internal/outputs.WriteTable&#45;&gt;github.com/wcatron/query&#45;projects/internal/outputs.createMarkdownString -->
<g id="edge7" class="edge">
<title>github.com/wcatron/query&#45;projects/internal/outputs.WriteTable&#45;&gt;github.com/wcatron/query&#45;projects/internal/outputs.createMarkdownString</title>
<g id="a_edge7"><a xlink:title="at markdown.go:54: calling [github.com/wcatron/query&#45;projects/internal/outputs.createMarkdownString]">
<path fill="none" stroke="#000000" d="M372.7103,-46.4915C400.5882,-54.4517 437.3958,-64.9618 469.6205,-74.1633"/>
<polygon fill="#000000" stroke="#000000" points="468.8825,-77.5924 479.4592,-76.9726 470.8045,-70.8614 468.8825,-77.5924"/>
</a>
</g>
</g>
<!-- github.com/wcatron/query&#45;projects/internal/outputs.WriteCSVTable -->
<g id="node5" class="node">
<title>github.com/wcatron/query&#45;projects/internal/outputs.WriteCSVTable</title>
<g id="a_node5"><a xlink:title="github.com/wcatron/query&#45;projects/internal/outputs.WriteCSVTable | defined in csv.go:22">
<path fill="#add8e6" stroke="#000000" stroke-width="1.5" d="M374.4328,-113C374.4328,-113 283.4944,-113 283.4944,-113 277.4944,-113 271.4944,-107 271.4944,-101 271.4944,-101 271.4944,-89 271.4944,-89 271.4944,-83 277.4944,-77 283.4944,-77 283.4944,-77 374.4328,-77 374.4328,-77 380.4328,-77 386.4328,-83 386.4328,-89 386.4328,-89 386.4328,-101 386.4328,-101 386.4328,-107 380.4328,-113 374.4328,-113"/>
<text text-anchor="middle" x="328.9636" y="-90.8" font-family="Verdana" font-size="14.00" fill="#000000">WriteCSVTable</text>
</a>
</g>
</g>
<!-- github.com/wcatron/query&#45;projects/internal/outputs.WriteJSONOutput -->
<g id="node6" class="node">
<title>github.com/wcatron/query&#45;projects/internal/outputs.WriteJSONOutput</title>
<g id="a_node6"><a xlink:title="github.com/wcatron/query&#45;projects/internal/outputs.WriteJSONOutput | defined in json.go:14">
<path fill="#add8e6" stroke="#000000" stroke-width="1.5" d="M381.163,-174C381.163,-174 276.7642,-174 276.7642,-174 270.7642,-174 264.7642,-168 264.7642,-162 264.7642,-162 264.7642,-150 264.7642,-150 264.7642,-144 270.7642,-138 276.7642,-138 276.7642,-138 381.163,-138 381.163,-138 387.163,-138 393.163,-144 393.163,-150 393.163,-150 393.163,-162 393.163,-162 393.163,-168 387.163,-174 381.163,-174"/>
<text text-anchor="middle" x="328.9636" y="-151.8" font-family="Verdana" font-size="14.00" fill="#000000">WriteJSONOutput</text>
</a>
</g>
</g>
<!-- github.com/wcatron/query&#45;projects/callvis.main -->
<g id="node8" class="node">
<title>github.com/wcatron/query&#45;projects/callvis.main</title>
<g id="a_node8"><a xlink:title="github.com/wcatron/query&#45;projects/callvis.main | defined in main.go:11&#10;at main.go:48: calling [github.com/wcatron/query&#45;projects/internal/outputs.WriteTable]&#10;at main.go:50: calling [github.com/wcatron/query&#45;projects/internal/outputs.WriteJSONOutput]&#10;at main.go:49: calling [github.com/wcatron/query&#45;projects/internal/outputs.WriteCSVTable]">
<path fill="#ffe4b5" stroke="#000000" stroke-width=".5" d="M122.932,-88C122.932,-88 92.932,-88 92.932,-88 86.932,-88 80.932,-82 80.932,-76 80.932,-76 80.932,-64 80.932,-64 80.932,-58 86.932,-52 92.932,-52 92.932,-52 122.932,-52 122.932,-52 128.932,-52 134.932,-58 134.932,-64 134.932,-64 134.932,-76 134.932,-76 134.932,-82 128.932,-88 122.932,-88"/>
<text text-anchor="middle" x="107.932" y="-65.8" font-family="Verdana" font-size="14.00" fill="#000000">main</text>
</a>
</g>
</g>
<!-- github.com/wcatron/query&#45;projects/callvis.main&#45;&gt;github.com/wcatron/query&#45;projects/internal/outputs.WriteTable -->
<g id="edge5" class="edge">
<title>github.com/wcatron/query&#45;projects/callvis.main&#45;&gt;github.com/wcatron/query&#45;projects/internal/outputs.WriteTable</title>
<g id="a_edge5"><a xlink:title="at main.go:48: calling [github.com/wcatron/query&#45;projects/internal/outputs.WriteTable]">
<path fill="none" stroke="#8b4513" d="M135.0348,-65.5857C169.6854,-59.9421 230.4911,-50.0385 274.7986,-42.822"/>
<polygon fill="#8b4513" stroke="#8b4513" points="275.5248,-46.2499 284.832,-41.1878 274.3994,-39.341 275.5248,-46.2499"/>
</a>
</g>
</g>
<!-- github.com/wcatron/query&#45;projects/callvis.main&#45;&gt;github.com/wcatron/query&#45;projects/internal/outputs.WriteCSVTable -->
<g id="edge11" class="edge">
<title>github.com/wcatron/query&#45;projects/callvis.main&#45;&gt;github.com/wcatron/query&#45;projects/internal/outputs.WriteCSVTable</title>
<g id="a_edge11"><a xlink:title="at main.go:49: calling [github.com/wcatron/query&#45;projects/internal/outputs.WriteCSVTable]">
<path fill="none" stroke="#8b4513" d="M135.0348,-73.0655C166.3041,-76.6022 218.8729,-82.5481 261.3959,-87.3577"/>
<polygon fill="#8b4513" stroke="#8b4513" points="261.0831,-90.8445 271.4131,-88.4907 261.8699,-83.8889 261.0831,-90.8445"/>
</a>
</g>
</g>
<!-- github.com/wcatron/query&#45;projects/callvis.main&#45;&gt;github.com/wcatron/query&#45;projects/internal/outputs.WriteJSONOutput -->
<g id="edge6" class="edge">
<title>github.com/wcatron/query&#45;projects/callvis.main&#45;&gt;github.com/wcatron/query&#45;projects/internal/outputs.WriteJSONOutput</title>
<g id="a_edge6"><a xlink:title="at main.go:50: calling [github.com/wcatron/query&#45;projects/internal/outputs.WriteJSONOutput]">
<path fill="none" stroke="#8b4513" d="M135.0348,-80.5453C169.187,-93.8334 228.747,-117.0073 272.8762,-134.1773"/>
<polygon fill="#8b4513" stroke="#8b4513" points="271.7363,-137.4893 282.3248,-137.8536 274.2745,-130.9657 271.7363,-137.4893"/>
</a>
</g>
</g>
<!-- github.com/wcatron/query&#45;projects/internal/commands.runScriptForProject -->
<g id="node9" class="node">
<title>github.com/wcatron/query&#45;projects/internal/commands.runScriptForProject</title>
<g id="a_node9"><a xlink:title="github.com/wcatron/query&#45;projects/internal/commands.runScriptForProject | defined in run.go:249&#10;at run.go:284: calling [github.com/wcatron/query&#45;projects/internal/outputs.FormatOutput]">
<path fill="#ffe4b5" stroke="#000000" stroke-width=".5" d="M163.6285,-257C163.6285,-257 52.2355,-257 52.2355,-257 46.2355,-257 40.2355,-251 40.2355,-245 40.2355,-245 40.2355,-233 40.2355,-233 40.2355,-227 46.2355,-221 52.2355,-221 52.2355,-221 163.6285,-221 163.6285,-221 169.6285,-221 175.6285,-227 175.6285,-233 175.6285,-233 175.6285,-245 175.6285,-245 175.6285,-251 169.6285,-257 163.6285,-257"/>
<text text-anchor="middle" x="107.932" y="-234.8" font-family="Verdana" font-size="14.00" fill="#000000">runScriptForProject</text>
</a>
</g>
</g>
<!-- github.com/wcatron/query&#45;projects/internal/commands.runScriptForProject&#45;&gt;github.com/wcatron/query&#45;projects/internal/outputs.FormatOutput -->
<g id="edge3" class="edge">
<title>github.com/wcatron/query&#45;projects/internal/commands.runScriptForProject&#45;&gt;github.com/wcatron/query&#45;projects/internal/outputs.FormatOutput</title>
<g id="a_edge3"><a xlink:title="at run.go:284: calling [github.com/wcatron/query&#45;projects/internal/outputs.FormatOutput]">
<path fill="none" stroke="#8b4513" d="M175.7509,-250.9663C204.7973,-256.0914 238.4936,-262.037 266.8772,-267.0451"/>
<polygon fill="#8b4513" stroke="#8b4513" points="266.6194,-270.5537 277.0755,-268.8446 267.8358,-263.6601 266.6194,-270.5537"/>
</a>
</g>
</g>
<!-- github.com/wcatron/query&#45;projects/internal/commands.runScriptsForProjectsList -->
<g id="node10" class="node">
<title>github.com/wcatron/query&#45;projects/internal/commands.runScriptsForProjectsList</title>
<g id="a_node10"><a xlink:title="github.com/wcatron/query&#45;projects/internal/commands.runScriptsForProjectsList | defined in run.go:180&#10;at run.go:222: calling [github.com/wcatron/query&#45;projects/internal/outputs.WriteTable]&#10;at run.go:215: calling [github.com/wcatron/query&#45;projects/internal/outputs.PrintToConsole]&#10;at run.go:224: calling [github.com/wcatron/query&#45;projects/internal/outputs.WriteCSVTable]&#10;at run.go:226: calling [github.com/wcatron/query&#45;projects/internal/outputs.WriteJSONOutput]">
<path fill="#ffe4b5" stroke="#000000" stroke-width=".5" d="M179.7961,-196C179.7961,-196 36.0679,-196 36.0679,-196 30.0679,-196 24.0679,-190 24.0679,-184 24.0679,-184 24.0679,-172 24.0679,-172 24.0679,-166 30.0679,-160 36.0679,-160 36.0679,-160 179.7961,-160 179.7961,-160 185.7961,-160 191.7961,-166 191.7961,-172 191.7961,-172 191.7961,-184 191.7961,-184 191.7961,-190 185.7961,-196 179.7961,-196"/>
<text text-anchor="middle" x="107.932" y="-173.8" font-family="Verdana" font-size="14.00" fill="#000000">runScriptsForProjectsList</text>
</a>
</g>
</g>
<!-- github.com/wcatron/query&#45;projects/internal/commands.runScriptsForProjectsList&#45;&gt;github.com/wcatron/query&#45;projects/internal/outputs.PrintToConsole -->
<g id="edge8" class="edge">
<title>github.com/wcatron/query&#45;projects/internal/commands.runScriptsForProjectsList&#45;&gt;github.com/wcatron/query&#45;projects/internal/outputs.PrintToConsole</title>
<g id="a_edge8"><a xlink:title="at run.go:215: calling [github.com/wcatron/query&#45;projects/internal/outputs.PrintToConsole]">
<path fill="none" stroke="#8b4513" d="M191.8097,-192.7998C215.2149,-196.9296 240.315,-201.3584 262.5619,-205.2837"/>
<polygon fill="#8b4513" stroke="#8b4513" points="262.1102,-208.758 272.5663,-207.049 263.3266,-201.8645 262.1102,-208.758"/>
</a>
</g>
</g>
<!-- github.com/wcatron/query&#45;projects/internal/commands.runScriptsForProjectsList&#45;&gt;github.com/wcatron/query&#45;projects/internal/outputs.WriteTable -->
<g id="edge4" class="edge">
<title>github.com/wcatron/query&#45;projects/internal/commands.runScriptsForProjectsList&#45;&gt;github.com/wcatron/query&#45;projects/internal/outputs.WriteTable</title>
<g id="a_edge4"><a xlink:title="at run.go:222: calling [github.com/wcatron/query&#45;projects/internal/outputs.WriteTable]">
<path fill="none" stroke="#8b4513" d="M147.8863,-159.8604C164.6037,-151.4832 183.8318,-140.7798 199.864,-129 232.5351,-104.9947 231.7282,-88.3597 264.864,-65 268.8232,-62.2089 273.0723,-59.5458 277.4298,-57.0371"/>
<polygon fill="#8b4513" stroke="#8b4513" points="279.3614,-59.9705 286.4681,-52.1127 276.0123,-53.8237 279.3614,-59.9705"/>
</a>
</g>
</g>
<!-- github.com/wcatron/query&#45;projects/internal/commands.runScriptsForProjectsList&#45;&gt;github.com/wcatron/query&#45;projects/internal/outputs.WriteCSVTable -->
<g id="edge9" class="edge">
<title>github.com/wcatron/query&#45;projects/internal/commands.runScriptsForProjectsList&#45;&gt;github.com/wcatron/query&#45;projects/internal/outputs.WriteCSVTable</title>
<g id="a_edge9"><a xlink:title="at run.go:224: calling [github.com/wcatron/query&#45;projects/internal/outputs.WriteCSVTable]">
<path fill="none" stroke="#8b4513" d="M155.8926,-159.9902C189.8092,-147.2542 235.4461,-130.1169 271.3412,-116.6379"/>
<polygon fill="#8b4513" stroke="#8b4513" points="272.5842,-119.9098 280.7155,-113.1177 270.1233,-113.3566 272.5842,-119.9098"/>
</a>
</g>
</g>
<!-- github.com/wcatron/query&#45;projects/internal/commands.runScriptsForProjectsList&#45;&gt;github.com/wcatron/query&#45;projects/internal/outputs.WriteJSONOutput -->
<g id="edge10" class="edge">
<title>github.com/wcatron/query&#45;projects/internal/commands.runScriptsForProjectsList&#45;&gt;github.com/wcatron/query&#45;projects/internal/outputs.WriteJSONOutput</title>
<g id="a_edge10"><a xlink:title="at run.go:226: calling [github.com/wcatron/query&#45;projects/internal/outputs.WriteJSONOutput]">
<path fill="none" stroke="#8b4513" d="M191.8097,-169.6514C212.4957,-167.5924 234.5056,-165.4017 254.6996,-163.3917"/>
<polygon fill="#8b4513" stroke="#8b4513" points="255.1601,-166.8633 264.7642,-162.39 254.4667,-159.8977 255.1601,-166.8633"/>
</a>
</g>
</g>
</g>
</svg>
