<?xml version="1.0" encoding="UTF-8" standalone="no"?>
<!DOCTYPE svg PUBLIC "-//W3C//DTD SVG 1.1//EN"
 "http://www.w3.org/Graphics/SVG/1.1/DTD/svg11.dtd">
<!-- Generated by graphviz version 2.40.1 (20161225.0304)
 -->
<!-- Title: gocallvis Pages: 1 -->
<svg width="635pt" height="342pt"
 viewBox="0.00 0.00 635.12 342.00" xmlns="http://www.w3.org/2000/svg" xmlns:xlink="http://www.w3.org/1999/xlink">
<g id="graph0" class="graph" transform="scale(1 1) rotate(0) translate(0 342)">
<title>gocallvis</title>
<polygon fill="#d3d3d3" stroke="transparent" points="0,0 0,-342 635.1236,-342 635.1236,0 0,0"/>
<g id="clust1" class="cluster">
<title>cluster_focus</title>
<polygon fill="#e6ecfa" stroke="#000000" stroke-width=".5" points="8,-8 8,-334 627.1236,-334 627.1236,-8 8,-8"/>
<text text-anchor="middle" x="317.5618" y="-313.8" font-family="Arial" font-size="18.00" fill="#000000">outputs</text>
</g>
<g id="clust5" class="cluster">
<title>cluster_github.com/wcatron/query&#45;projects/internal/scripts</title>
<g id="a_clust5"><a xlink:href="/?f=github.com/wcatron/query-projects/internal/scripts" xlink:title="package: github.com/wcatron/query&#45;projects/internal/scripts">
<polygon fill="#ffffe0" stroke="#000000" stroke-width=".8" points="29.9958,-217 29.9958,-296 185.8682,-296 185.8682,-217 29.9958,-217"/>
<text text-anchor="middle" x="107.932" y="-277.6" font-family="Tahoma bold" font-size="16.00" fill="#000000">scripts</text>
</a>
</g>
</g>
<g id="clust4" class="cluster">
<title>cluster_github.com/wcatron/query&#45;projects/internal/commands</title>
<g id="a_clust4"><a xlink:href="/?f=github.com/wcatron/query-projects/internal/commands" xlink:title="package: github.com/wcatron/query&#45;projects/internal/commands">
<polygon fill="#ffffe0" stroke="#000000" stroke-width=".8" points="16,-126 16,-205 199.864,-205 199.864,-126 16,-126"/>
<text text-anchor="middle" x="107.932" y="-186.6" font-family="Tahoma bold" font-size="16.00" fill="#000000">commands</text>
</a>
</g>
</g>
<g id="clust3" class="cluster">
<title>cluster_github.com/wcatron/query&#45;projects/callvis</title>
<g id="a_clust3"><a xlink:href="/?f=github.com/wcatron/query-projects/callvis" xlink:title="package: github.com/wcatron/query&#45;projects/callvis">
<polygon fill="#ffffe0" stroke="#000000" stroke-width=".8" points="72.932,-35 72.932,-114 142.932,-114 142.932,-35 72.932,-35"/>
<text text-anchor="middle" x="107.932" y="-95.6" font-family="Tahoma bold" font-size="16.00" fill="#000000">main</text>
</a>
</g>
</g>
<g id="clust2" class="cluster">
<title>cluster_github.com/charmbracelet/glamour</title>
<g id="a_clust2"><a xlink:href="/?f=github.com/charmbracelet/glamour" xlink:title="package: github.com/charmbracelet/glamour">
<polygon fill="#ffffe0" stroke="#000000" stroke-width=".8" points="502.3802,-191 502.3802,-270 582.8066,-270 582.8066,-191 502.3802,-191"/>
<text text-anchor="middle" x="542.5934" y="-251.6" font-family="Tahoma bold" font-size="16.00" fill="#000000">glamour</text>
</a>
</g>
</g>
<!-- github.com/wcatron/query&#45;projects/internal/outputs.FormatOutput -->
<g id="node1" class="node">
<title>github.com/wcatron/query&#45;projects/internal/outputs.FormatOutput</title>
<g id="a_node1"><a xlink:title="github.com/wcatron/query&#45;projects/internal/outputs.FormatOutput | defined in csv.go:14">
<path fill="#add8e6" stroke="#000000" stroke-width="1.5" d="M368.7909,-296C368.7909,-296 289.1363,-296 289.1363,-296 283.1363,-296 277.1363,-290 277.1363,-284 277.1363,-284 277.1363,-272 277.1363,-272 277.1363,-266 283.1363,-260 289.1363,-260 289.1363,-260 368.7909,-260 368.7909,-260 374.7909,-260 380.7909,-266 380.7909,-272 380.7909,-272 380.7909,-284 380.7909,-284 380.7909,-290 374.7909,-296 368.7909,-296"/>
<text text-anchor="middle" x="328.9636" y="-273.8" font-family="Verdana" font-size="14.00" fill="#000000">FormatOutput</text>
</a>
</g>
</g>
<!-- github.com/wcatron/query&#45;projects/internal/outputs.PrintToConsole -->
<g id="node2" class="node">
<title>github.com/wcatron/query&#45;projects/internal/outputs.PrintToConsole</title>
<g id="a_node2"><a xlink:title="github.com/wcatron/query&#45;projects/internal/outputs.PrintToConsole | defined in markdown.go:36&#10;at markdown.go:37: calling [github.com/wcatron/query&#45;projects/internal/outputs.createMarkdownString]&#10;at markdown.go:40: calling [github.com/charmbracelet/glamour.Render]">
<path fill="#add8e6" stroke="#000000" stroke-width="1.5" d="M373.1275,-235C373.1275,-235 284.7997,-235 284.7997,-235 278.7997,-235 272.7997,-229 272.7997,-223 272.7997,-223 272.7997,-211 272.7997,-211 272.7997,-205 278.7997,-199 284.7997,-199 284.7997,-199 373.1275,-199 373.1275,-199 379.1275,-199 385.1275,-205 385.1275,-211 385.1275,-211 385.1275,-223 385.1275,-223 385.1275,-229 379.1275,-235 373.1275,-235"/>
<text text-anchor="middle" x="328.9636" y="-212.8" font-family="Verdana" font-size="14.00" fill="#000000">PrintToConsole</text>
</a>
</g>
</g>
<!-- github.com/wcatron/query&#45;projects/internal/outputs.createMarkdownString -->
<g id="node3" class="node">
<title>github.com/wcatron/query&#45;projects/internal/outputs.createMarkdownString</title>
<g id="a_node3"><a xlink:title="github.com/wcatron/query&#45;projects/internal/outputs.createMarkdownString | defined in markdown.go:14">
<path fill="#add8e6" stroke="#000000" stroke-width=".5" d="M607.1538,-144C607.1538,-144 478.033,-144 478.033,-144 472.033,-144 466.033,-138 466.033,-132 466.033,-132 466.033,-120 466.033,-120 466.033,-114 472.033,-108 478.033,-108 478.033,-108 607.1538,-108 607.1538,-108 613.1538,-108 619.1538,-114 619.1538,-120 619.1538,-120 619.1538,-132 619.1538,-132 619.1538,-138 613.1538,-144 607.1538,-144"/>
<text text-anchor="middle" x="542.5934" y="-121.8" font-family="Verdana" font-size="14.00" fill="#000000">createMarkdownString</text>
</a>
</g>
</g>
<!-- github.com/wcatron/query&#45;projects/internal/outputs.PrintToConsole&#45;&gt;github.com/wcatron/query&#45;projects/internal/outputs.createMarkdownString -->
<g id="edge9" class="edge">
<title>github.com/wcatron/query&#45;projects/internal/outputs.PrintToConsole&#45;&gt;github.com/wcatron/query&#45;projects/internal/outputs.createMarkdownString</title>
<g id="a_edge9"><a xlink:title="at markdown.go:37: calling [github.com/wcatron/query&#45;projects/internal/outputs.createMarkdownString]">
<path fill="none" stroke="#000000" d="M371.4254,-198.9125C405.7172,-184.3052 454.117,-163.6883 490.7048,-148.103"/>
<polygon fill="#000000" stroke="#000000" points="492.3835,-151.1923 500.212,-144.0532 489.6402,-144.7522 492.3835,-151.1923"/>
</a>
</g>
</g>
<!-- github.com/charmbracelet/glamour.Render -->
<g id="node7" class="node">
<title>github.com/charmbracelet/glamour.Render</title>
<g id="a_node7"><a xlink:title="github.com/charmbracelet/glamour.Render | defined in glamour.go:45">
<path fill="#ffe4b5" stroke="#000000" stroke-width="1.5" d="M563.0212,-235C563.0212,-235 522.1656,-235 522.1656,-235 516.1656,-235 510.1656,-229 510.1656,-223 510.1656,-223 510.1656,-211 510.1656,-211 510.1656,-205 516.1656,-199 522.1656,-199 522.1656,-199 563.0212,-199 563.0212,-199 569.0212,-199 575.0212,-205 575.0212,-211 575.0212,-211 575.0212,-223 575.0212,-223 575.0212,-229 569.0212,-235 563.0212,-235"/>
<text text-anchor="middle" x="542.5934" y="-212.8" font-family="Verdana" font-size="14.00" fill="#000000">Render</text>
</a>
</g>
</g>
<!-- github.com/wcatron/query&#45;projects/internal/outputs.PrintToConsole&#45;&gt;github.com/charmbracelet/glamour.Render -->
<g id="edge10" class="edge">
<title>github.com/wcatron/query&#45;projects/internal/outputs.PrintToConsole&#45;&gt;github.com/charmbracelet/glamour.Render</title>
<g id="a_edge10"><a xlink:title="at markdown.go:40: calling [github.com/charmbracelet/glamour.Render]">
<path fill="none" stroke="#8b4513" d="M385.3718,-217C421.2895,-217 467.0737,-217 499.959,-217"/>
<polygon fill="#8b4513" stroke="#8b4513" points="500.154,-220.5001 510.154,-217 500.1539,-213.5001 500.154,-220.5001"/>
</a>
</g>
</g>
<!-- github.com/wcatron/query&#45;projects/internal/outputs.WriteTable -->
<g id="node4" class="node">
<title>github.com/wcatron/query&#45;projects/internal/outputs.WriteTable</title>
<g id="a_node4"><a xlink:title="github.com/wcatron/query&#45;projects/internal/outputs.WriteTable | defined in markdown.go:49&#10;at markdown.go:54: calling [github.com/wcatron/query&#45;projects/internal/outputs.createMarkdownString]">
<path fill="#add8e6" stroke="#000000" stroke-width="1.5" d="M360.7074,-113C360.7074,-113 297.2198,-113 297.2198,-113 291.2198,-113 285.2198,-107 285.2198,-101 285.2198,-101 285.2198,-89 285.2198,-89 285.2198,-83 291.2198,-77 297.2198,-77 297.2198,-77 360.7074,-77 360.7074,-77 366.7074,-77 372.7074,-83 372.7074,-89 372.7074,-89 372.7074,-101 372.7074,-101 372.7074,-107 366.7074,-113 360.7074,-113"/>
<text text-anchor="middle" x="328.9636" y="-90.8" font-family="Verdana" font-size="14.00" fill="#000000">WriteTable</text>
</a>
</g>
</g>
<!-- github.com/wcatron/query&#45;projects/internal/outputs.WriteTable&#45;&gt;github.com/wcatron/query&#45;projects/internal/outputs.createMarkdownString -->
<g id="edge1" class="edge">
<title>github.com/wcatron/query&#45;projects/internal/outputs.WriteTable&#45;&gt;github.com/wcatron/query&#45;projects/internal/outputs.createMarkdownString</title>
<g id="a_edge1"><a xlink:title="at markdown.go:54: calling [github.com/wcatron/query&#45;projects/internal/outputs.createMarkdownString]">
<path fill="none" stroke="#000000" d="M372.7103,-101.3481C396.7334,-104.8341 427.3875,-109.2824 456.0259,-113.4381"/>
<polygon fill="#000000" stroke="#000000" points="455.6584,-116.9214 466.0574,-114.8938 456.6637,-109.9939 455.6584,-116.9214"/>
</a>
</g>
</g>
<!-- github.com/wcatron/query&#45;projects/internal/outputs.WriteCSVTable -->
<g id="node5" class="node">
<title>github.com/wcatron/query&#45;projects/internal/outputs.WriteCSVTable</title>
<g id="a_node5"><a xlink:title="github.com/wcatron/query&#45;projects/internal/outputs.WriteCSVTable | defined in csv.go:22">
<path fill="#add8e6" stroke="#000000" stroke-width="1.5" d="M374.4328,-52C374.4328,-52 283.4944,-52 283.4944,-52 277.4944,-52 271.4944,-46 271.4944,-40 271.4944,-40 271.4944,-28 271.4944,-28 271.4944,-22 277.4944,-16 283.4944,-16 283.4944,-16 374.4328,-16 374.4328,-16 380.4328,-16 386.4328,-22 386.4328,-28 386.4328,-28 386.4328,-40 386.4328,-40 386.4328,-46 380.4328,-52 374.4328,-52"/>
<text text-anchor="middle" x="328.9636" y="-29.8" font-family="Verdana" font-size="14.00" fill="#000000">WriteCSVTable</text>
</a>
</g>
</g>
<!-- github.com/wcatron/query&#45;projects/internal/outputs.WriteJSONOutput -->
<g id="node6" class="node">
<title>github.com/wcatron/query&#45;projects/internal/outputs.WriteJSONOutput</title>
<g id="a_node6"><a xlink:title="github.com/wcatron/query&#45;projects/internal/outputs.WriteJSONOutput | defined in json.go:14">
<path fill="#add8e6" stroke="#000000" stroke-width="1.5" d="M381.163,-174C381.163,-174 276.7642,-174 276.7642,-174 270.7642,-174 264.7642,-168 264.7642,-162 264.7642,-162 264.7642,-150 264.7642,-150 264.7642,-144 270.7642,-138 276.7642,-138 276.7642,-138 381.163,-138 381.163,-138 387.163,-138 393.163,-144 393.163,-150 393.163,-150 393.163,-162 393.163,-162 393.163,-168 387.163,-174 381.163,-174"/>
<text text-anchor="middle" x="328.9636" y="-151.8" font-family="Verdana" font-size="14.00" fill="#000000">WriteJSONOutput</text>
</a>
</g>
</g>
<!-- github.com/wcatron/query&#45;projects/callvis.main -->
<g id="node8" class="node">
<title>github.com/wcatron/query&#45;projects/callvis.main</title>
<g id="a_node8"><a xlink:title="github.com/wcatron/query&#45;projects/callvis.main | defined in main.go:11&#10;at main.go:49: calling [github.com/wcatron/query&#45;projects/internal/outputs.WriteCSVTable]&#10;at main.go:50: calling [github.com/wcatron/query&#45;projects/internal/outputs.WriteJSONOutput]&#10;at main.go:48: calling [github.com/wcatron/query&#45;projects/internal/outputs.WriteTable]">
<path fill="#ffe4b5" stroke="#000000" stroke-width=".5" d="M122.932,-79C122.932,-79 92.932,-79 92.932,-79 86.932,-79 80.932,-73 80.932,-67 80.932,-67 80.932,-55 80.932,-55 80.932,-49 86.932,-43 92.932,-43 92.932,-43 122.932,-43 122.932,-43 128.932,-43 134.932,-49 134.932,-55 134.932,-55 134.932,-67 134.932,-67 134.932,-73 128.932,-79 122.932,-79"/>
<text text-anchor="middle" x="107.932" y="-56.8" font-family="Verdana" font-size="14.00" fill="#000000">main</text>
</a>
</g>
</g>
<!-- github.com/wcatron/query&#45;projects/callvis.main&#45;&gt;github.com/wcatron/query&#45;projects/internal/outputs.WriteTable -->
<g id="edge8" class="edge">
<title>github.com/wcatron/query&#45;projects/callvis.main&#45;&gt;github.com/wcatron/query&#45;projects/internal/outputs.WriteTable</title>
<g id="a_edge8"><a xlink:title="at main.go:48: calling [github.com/wcatron/query&#45;projects/internal/outputs.WriteTable]">
<path fill="none" stroke="#8b4513" d="M135.0348,-65.1691C169.6854,-70.4992 230.4911,-79.8525 274.7986,-86.6681"/>
<polygon fill="#8b4513" stroke="#8b4513" points="274.4161,-90.1504 284.832,-88.2115 275.4804,-83.2317 274.4161,-90.1504"/>
</a>
</g>
</g>
<!-- github.com/wcatron/query&#45;projects/callvis.main&#45;&gt;github.com/wcatron/query&#45;projects/internal/outputs.WriteCSVTable -->
<g id="edge4" class="edge">
<title>github.com/wcatron/query&#45;projects/callvis.main&#45;&gt;github.com/wcatron/query&#45;projects/internal/outputs.WriteCSVTable</title>
<g id="a_edge4"><a xlink:title="at main.go:49: calling [github.com/wcatron/query&#45;projects/internal/outputs.WriteCSVTable]">
<path fill="none" stroke="#8b4513" d="M135.0348,-57.6893C166.3041,-53.8696 218.8729,-47.4481 261.3959,-42.2537"/>
<polygon fill="#8b4513" stroke="#8b4513" points="261.9113,-45.7168 271.4131,-41.03 261.0625,-38.7685 261.9113,-45.7168"/>
</a>
</g>
</g>
<!-- github.com/wcatron/query&#45;projects/callvis.main&#45;&gt;github.com/wcatron/query&#45;projects/internal/outputs.WriteJSONOutput -->
<g id="edge5" class="edge">
<title>github.com/wcatron/query&#45;projects/callvis.main&#45;&gt;github.com/wcatron/query&#45;projects/internal/outputs.WriteJSONOutput</title>
<g id="a_edge5"><a xlink:title="at main.go:50: calling [github.com/wcatron/query&#45;projects/internal/outputs.WriteJSONOutput]">
<path fill="none" stroke="#8b4513" d="M135.0348,-72.6489C170.4424,-87.8671 233.1602,-114.8234 277.6782,-133.9574"/>
<polygon fill="#8b4513" stroke="#8b4513" points="276.3158,-137.1814 286.8853,-137.9146 279.08,-130.7502 276.3158,-137.1814"/>
</a>
</g>
</g>
<!-- github.com/wcatron/query&#45;projects/internal/commands.runScriptsForProjectsList -->
<g id="node9" class="node">
<title>github.com/wcatron/query&#45;projects/internal/commands.runScriptsForProjectsList</title>
<g id="a_node9"><a xlink:title="github.com/wcatron/query&#45;projects/internal/commands.runScriptsForProjectsList | defined in run.go:183&#10;at run.go:225: calling [github.com/wcatron/query&#45;projects/internal/outputs.WriteTable]&#10;at run.go:229: calling [github.com/wcatron/query&#45;projects/internal/outputs.WriteJSONOutput]&#10;at run.go:227: calling [github.com/wcatron/query&#45;projects/internal/outputs.WriteCSVTable]&#10;at run.go:218: calling [github.com/wcatron/query&#45;projects/internal/outputs.PrintToConsole]">
<path fill="#ffe4b5" stroke="#000000" stroke-width=".5" d="M179.7961,-170C179.7961,-170 36.0679,-170 36.0679,-170 30.0679,-170 24.0679,-164 24.0679,-158 24.0679,-158 24.0679,-146 24.0679,-146 24.0679,-140 30.0679,-134 36.0679,-134 36.0679,-134 179.7961,-134 179.7961,-134 185.7961,-134 191.7961,-140 191.7961,-146 191.7961,-146 191.7961,-158 191.7961,-158 191.7961,-164 185.7961,-170 179.7961,-170"/>
<text text-anchor="middle" x="107.932" y="-147.8" font-family="Verdana" font-size="14.00" fill="#000000">runScriptsForProjectsList</text>
</a>
</g>
</g>
<!-- github.com/wcatron/query&#45;projects/internal/commands.runScriptsForProjectsList&#45;&gt;github.com/wcatron/query&#45;projects/internal/outputs.PrintToConsole -->
<g id="edge11" class="edge">
<title>github.com/wcatron/query&#45;projects/internal/commands.runScriptsForProjectsList&#45;&gt;github.com/wcatron/query&#45;projects/internal/outputs.PrintToConsole</title>
<g id="a_edge11"><a xlink:title="at run.go:218: calling [github.com/wcatron/query&#45;projects/internal/outputs.PrintToConsole]">
<path fill="none" stroke="#8b4513" d="M169.2081,-170.0198C198.2486,-178.5599 232.9908,-188.7768 262.6485,-197.4983"/>
<polygon fill="#8b4513" stroke="#8b4513" points="261.9146,-200.9307 272.4958,-200.3942 263.8895,-194.215 261.9146,-200.9307"/>
</a>
</g>
</g>
<!-- github.com/wcatron/query&#45;projects/internal/commands.runScriptsForProjectsList&#45;&gt;github.com/wcatron/query&#45;projects/internal/outputs.WriteTable -->
<g id="edge2" class="edge">
<title>github.com/wcatron/query&#45;projects/internal/commands.runScriptsForProjectsList&#45;&gt;github.com/wcatron/query&#45;projects/internal/outputs.WriteTable</title>
<g id="a_edge2"><a xlink:title="at run.go:225: calling [github.com/wcatron/query&#45;projects/internal/outputs.WriteTable]">
<path fill="none" stroke="#8b4513" d="M177.8678,-133.9648C209.3196,-125.854 245.8635,-116.43 275.1333,-108.8818"/>
<polygon fill="#8b4513" stroke="#8b4513" points="276.3536,-112.1817 285.1628,-106.2954 274.6056,-105.4035 276.3536,-112.1817"/>
</a>
</g>
</g>
<!-- github.com/wcatron/query&#45;projects/internal/commands.runScriptsForProjectsList&#45;&gt;github.com/wcatron/query&#45;projects/internal/outputs.WriteCSVTable -->
<g id="edge7" class="edge">
<title>github.com/wcatron/query&#45;projects/internal/commands.runScriptsForProjectsList&#45;&gt;github.com/wcatron/query&#45;projects/internal/outputs.WriteCSVTable</title>
<g id="a_edge7"><a xlink:title="at run.go:227: calling [github.com/wcatron/query&#45;projects/internal/outputs.WriteCSVTable]">
<path fill="none" stroke="#8b4513" d="M170.1345,-133.8586C180.3539,-129.8952 190.6172,-125.2773 199.864,-120 232.731,-101.2421 233.1344,-85.6235 264.864,-65 269.222,-62.1674 273.8776,-59.4291 278.6155,-56.8304"/>
<polygon fill="#8b4513" stroke="#8b4513" points="280.5488,-59.7682 287.7716,-52.017 277.2915,-53.5722 280.5488,-59.7682"/>
</a>
</g>
</g>
<!-- github.com/wcatron/query&#45;projects/internal/commands.runScriptsForProjectsList&#45;&gt;github.com/wcatron/query&#45;projects/internal/outputs.WriteJSONOutput -->
<g id="edge3" class="edge">
<title>github.com/wcatron/query&#45;projects/internal/commands.runScriptsForProjectsList&#45;&gt;github.com/wcatron/query&#45;projects/internal/outputs.WriteJSONOutput</title>
<g id="a_edge3"><a xlink:title="at run.go:229: calling [github.com/wcatron/query&#45;projects/internal/outputs.WriteJSONOutput]">
<path fill="none" stroke="#8b4513" d="M191.8097,-153.5179C212.4957,-153.8923 234.5056,-154.2906 254.6996,-154.656"/>
<polygon fill="#8b4513" stroke="#8b4513" points="254.7025,-158.1566 264.7642,-154.8382 254.8292,-151.1577 254.7025,-158.1566"/>
</a>
</g>
</g>
<!-- github.com/wcatron/query&#45;projects/internal/scripts.RunScriptForProject -->
<g id="node10" class="node">
<title>github.com/wcatron/query&#45;projects/internal/scripts.RunScriptForProject</title>
<g id="a_node10"><a xlink:title="github.com/wcatron/query&#45;projects/internal/scripts.RunScriptForProject | defined in runner.go:35&#10;at runner.go:78: calling [github.com/wcatron/query&#45;projects/internal/outputs.FormatOutput]">
<path fill="#ffe4b5" stroke="#000000" stroke-width="1.5" d="M165.8045,-261C165.8045,-261 50.0595,-261 50.0595,-261 44.0595,-261 38.0595,-255 38.0595,-249 38.0595,-249 38.0595,-237 38.0595,-237 38.0595,-231 44.0595,-225 50.0595,-225 50.0595,-225 165.8045,-225 165.8045,-225 171.8045,-225 177.8045,-231 177.8045,-237 177.8045,-237 177.8045,-249 177.8045,-249 177.8045,-255 171.8045,-261 165.8045,-261"/>
<text text-anchor="middle" x="107.932" y="-238.8" font-family="Verdana" font-size="14.00" fill="#000000">RunScriptForProject</text>
</a>
</g>
</g>
<!-- github.com/wcatron/query&#45;projects/internal/scripts.RunScriptForProject&#45;&gt;github.com/wcatron/query&#45;projects/internal/outputs.FormatOutput -->
<g id="edge6" class="edge">
<title>github.com/wcatron/query&#45;projects/internal/scripts.RunScriptForProject&#45;&gt;github.com/wcatron/query&#45;projects/internal/outputs.FormatOutput</title>
<g id="a_edge6"><a xlink:title="at runner.go:78: calling [github.com/wcatron/query&#45;projects/internal/outputs.FormatOutput]">
<path fill="none" stroke="#8b4513" d="M177.8678,-254.0742C206.4789,-258.6047 239.3037,-263.8025 267.0334,-268.1935"/>
<polygon fill="#8b4513" stroke="#8b4513" points="266.5775,-271.6648 277.0019,-269.7719 267.6723,-264.7509 266.5775,-271.6648"/>
</a>
</g>
</g>
</g>
</svg>
